<svg width="107" height="139" viewBox="0 0 107 139" fill="none" xmlns="http://www.w3.org/2000/svg">
<path d="M53.3801 138.22C45.7535 138.22 38.7868 136.973 32.4801 134.48C26.1735 131.987 20.7468 128.503 16.2001 124.03C11.6535 119.557 8.13345 114.277 5.64012 108.19C3.14678 102.03 1.90012 95.32 1.90012 88.06C1.90012 80.8 3.14678 74.1267 5.64012 68.04C8.13345 61.9533 11.6535 56.6733 16.2001 52.2C20.8201 47.7267 26.3201 44.28 32.7001 41.86C39.0801 39.44 46.1201 38.23 53.8201 38.23C61.3735 38.23 68.2668 39.4033 74.5001 41.75C80.7335 44.0967 86.1235 47.4333 90.6701 51.76C95.2901 56.0133 98.8468 61.11 101.34 67.05C103.833 72.9167 105.08 79.4067 105.08 86.52C105.08 92.7533 104.31 98.1067 102.77 102.58C101.23 107.053 98.9935 110.537 96.0601 113.03C93.2001 115.45 89.6801 116.66 85.5001 116.66C81.3935 116.66 78.0935 115.413 75.6001 112.92C73.1801 110.427 71.9701 106.87 71.9701 102.25V94.77L72.5201 88.06L71.5301 75.41V60.78H81.1001V100.38C81.1001 103.313 81.6868 105.367 82.8601 106.54C84.1068 107.713 85.6101 108.3 87.3701 108.3C89.4968 108.3 91.3301 107.457 92.8701 105.77C94.4835 104.083 95.6568 101.627 96.3901 98.4C97.1968 95.1 97.6001 91.1767 97.6001 86.63C97.6001 80.47 96.5368 74.8967 94.4101 69.91C92.3568 64.85 89.3501 60.4867 85.3901 56.82C81.5035 53.1533 76.8835 50.3667 71.5301 48.46C66.2501 46.48 60.3468 45.49 53.8201 45.49C47.2935 45.49 41.3168 46.5533 35.8901 48.68C30.5368 50.7333 25.9168 53.6667 22.0301 57.48C18.1435 61.22 15.1368 65.6933 13.0101 70.9C10.9568 76.1067 9.93012 81.8267 9.93012 88.06C9.93012 94.3667 10.9568 100.16 13.0101 105.44C15.0635 110.647 17.9968 115.12 21.8101 118.86C25.6968 122.673 30.2801 125.607 35.5601 127.66C40.9135 129.787 46.8535 130.85 53.3801 130.85C56.7535 130.85 60.3101 130.447 64.0501 129.64C67.7901 128.907 71.3101 127.697 74.6101 126.01L77.0301 133.05C73.6568 134.737 69.8435 136.02 65.5901 136.9C61.3368 137.78 57.2668 138.22 53.3801 138.22ZM51.4001 116.66C46.1935 116.66 41.5735 115.45 37.5401 113.03C33.5068 110.537 30.3168 107.163 27.9701 102.91C25.6235 98.6567 24.4501 93.8167 24.4501 88.39C24.4501 82.89 25.6235 78.05 27.9701 73.87C30.3168 69.6167 33.5068 66.3167 37.5401 63.97C41.5735 61.55 46.1935 60.34 51.4001 60.34C56.4601 60.34 60.8968 61.44 64.7101 63.64C68.5235 65.7667 71.4935 68.92 73.6201 73.1C75.8201 77.28 76.9201 82.3767 76.9201 88.39C76.9201 94.4033 75.8568 99.5 73.7301 103.68C71.6035 107.86 68.6335 111.087 64.8201 113.36C61.0068 115.56 56.5335 116.66 51.4001 116.66ZM52.9401 108.08C56.5335 108.08 59.7235 107.31 62.5101 105.77C65.3701 104.157 67.6068 101.883 69.2201 98.95C70.9068 95.9433 71.7501 92.4233 71.7501 88.39C71.7501 84.2833 70.9068 80.7633 69.2201 77.83C67.6068 74.8967 65.3701 72.66 62.5101 71.12C59.7235 69.58 56.5335 68.81 52.9401 68.81C49.2735 68.81 46.0101 69.6167 43.1501 71.23C40.3635 72.77 38.1635 75.0067 36.5501 77.94C35.0101 80.8733 34.2401 84.3567 34.2401 88.39C34.2401 92.35 35.0101 95.7967 36.5501 98.73C38.1635 101.663 40.3635 103.973 43.1501 105.66C46.0101 107.273 49.2735 108.08 52.9401 108.08Z" fill="url(#paint0_linear_15_194)"/>
<defs>
<linearGradient id="paint0_linear_15_194" x1="25.3233" y1="12.6933" x2="140.044" y2="109.529" gradientUnits="userSpaceOnUse">
<stop offset="0.14125" stop-color="#9F66FF"/>
<stop offset="0.286464" stop-color="#8594E4"/>
<stop offset="0.83273" stop-color="#8594E4"/>
<stop offset="1" stop-color="#9F66FF" stop-opacity="0"/>
</linearGradient>
</defs>
</svg>
