<svg width="120" height="120" viewBox="0 0 120 120" fill="none" xmlns="http://www.w3.org/2000/svg">
<path d="M60 75C68.2843 75 75 68.2843 75 60C75 51.7157 68.2843 45 60 45C51.7157 45 45 51.7157 45 60C45 68.2843 51.7157 75 60 75Z" stroke="url(#paint0_linear_7_370)" stroke-width="5" stroke-linecap="round" stroke-linejoin="round"/>
<path d="M97 75C96.3344 76.5081 96.1359 78.181 96.43 79.8029C96.7241 81.4249 97.4973 82.9216 98.65 84.1L98.95 84.4C99.8798 85.3287 100.617 86.4316 101.121 87.6456C101.624 88.8596 101.883 90.1609 101.883 91.475C101.883 92.7892 101.624 94.0904 101.121 95.3044C100.617 96.5184 99.8798 97.6213 98.95 98.55C98.0213 99.4798 96.9184 100.217 95.7044 100.721C94.4904 101.224 93.1892 101.483 91.875 101.483C90.5609 101.483 89.2596 101.224 88.0456 100.721C86.8316 100.217 85.7287 99.4798 84.8 98.55L84.5 98.25C83.3216 97.0973 81.8249 96.3241 80.2029 96.03C78.581 95.7359 76.9081 95.9344 75.4 96.6C73.9212 97.2338 72.6599 98.2862 71.7715 99.6277C70.8832 100.969 70.4064 102.541 70.4 104.15V105C70.4 107.652 69.3464 110.196 67.4711 112.071C65.5957 113.946 63.0522 115 60.4 115C57.7478 115 55.2043 113.946 53.3289 112.071C51.4536 110.196 50.4 107.652 50.4 105V104.55C50.3613 102.895 49.8256 101.29 48.8626 99.9435C47.8995 98.597 46.5537 97.5714 45 97C43.4919 96.3344 41.819 96.1359 40.1971 96.43C38.5751 96.7241 37.0784 97.4973 35.9 98.65L35.6 98.95C34.6713 99.8798 33.5684 100.617 32.3544 101.121C31.1404 101.624 29.8392 101.883 28.525 101.883C27.2108 101.883 25.9096 101.624 24.6956 101.121C23.4816 100.617 22.3787 99.8798 21.45 98.95C20.5202 98.0213 19.7826 96.9184 19.2794 95.7044C18.7762 94.4904 18.5171 93.1892 18.5171 91.875C18.5171 90.5609 18.7762 89.2596 19.2794 88.0456C19.7826 86.8316 20.5202 85.7287 21.45 84.8L21.75 84.5C22.9027 83.3216 23.6759 81.8249 23.97 80.2029C24.2641 78.581 24.0656 76.9081 23.4 75.4C22.7662 73.9212 21.7138 72.6599 20.3723 71.7715C19.0309 70.8832 17.4589 70.4064 15.85 70.4H15C12.3478 70.4 9.8043 69.3464 7.92893 67.4711C6.05357 65.5957 5 63.0522 5 60.4C5 57.7478 6.05357 55.2043 7.92893 53.3289C9.8043 51.4536 12.3478 50.4 15 50.4H15.45C17.105 50.3613 18.71 49.8256 20.0565 48.8626C21.403 47.8995 22.4286 46.5537 23 45C23.6656 43.4919 23.8641 41.819 23.57 40.1971C23.2759 38.5751 22.5027 37.0784 21.35 35.9L21.05 35.6C20.1202 34.6713 19.3826 33.5684 18.8794 32.3544C18.3762 31.1404 18.1171 29.8392 18.1171 28.525C18.1171 27.2108 18.3762 25.9096 18.8794 24.6956C19.3826 23.4816 20.1202 22.3787 21.05 21.45C21.9787 20.5202 23.0816 19.7826 24.2956 19.2794C25.5096 18.7762 26.8108 18.5171 28.125 18.5171C29.4392 18.5171 30.7404 18.7762 31.9544 19.2794C33.1684 19.7826 34.2713 20.5202 35.2 21.45L35.5 21.75C36.6784 22.9027 38.1751 23.6759 39.7971 23.97C41.419 24.2641 43.0919 24.0656 44.6 23.4H45C46.4789 22.7662 47.7401 21.7138 48.6285 20.3723C49.5168 19.0309 49.9936 17.4589 50 15.85V15C50 12.3478 51.0536 9.8043 52.9289 7.92893C54.8043 6.05357 57.3478 5 60 5C62.6522 5 65.1957 6.05357 67.0711 7.92893C68.9464 9.8043 70 12.3478 70 15V15.45C70.0064 17.0589 70.4832 18.6309 71.3715 19.9723C72.2599 21.3138 73.5212 22.3662 75 23C76.5081 23.6656 78.181 23.8641 79.8029 23.57C81.4249 23.2759 82.9216 22.5027 84.1 21.35L84.4 21.05C85.3287 20.1202 86.4316 19.3826 87.6456 18.8794C88.8596 18.3762 90.1609 18.1171 91.475 18.1171C92.7892 18.1171 94.0904 18.3762 95.3044 18.8794C96.5184 19.3826 97.6213 20.1202 98.55 21.05C99.4798 21.9787 100.217 23.0816 100.721 24.2956C101.224 25.5096 101.483 26.8108 101.483 28.125C101.483 29.4392 101.224 30.7404 100.721 31.9544C100.217 33.1684 99.4798 34.2713 98.55 35.2L98.25 35.5C97.0973 36.6784 96.3241 38.1751 96.03 39.7971C95.7359 41.419 95.9344 43.0919 96.6 44.6V45C97.2338 46.4789 98.2862 47.7401 99.6277 48.6285C100.969 49.5168 102.541 49.9936 104.15 50H105C107.652 50 110.196 51.0536 112.071 52.9289C113.946 54.8043 115 57.3478 115 60C115 62.6522 113.946 65.1957 112.071 67.0711C110.196 68.9464 107.652 70 105 70H104.55C102.941 70.0064 101.369 70.4832 100.028 71.3715C98.6862 72.2599 97.6338 73.5212 97 75Z" stroke="url(#paint1_linear_7_370)" stroke-width="5" stroke-linecap="round" stroke-linejoin="round"/>
<defs>
<linearGradient id="paint0_linear_7_370" x1="39.6671" y1="39.126" x2="84.6671" y2="89.126" gradientUnits="userSpaceOnUse">
<stop offset="0.14125" stop-color="#9F66FF"/>
<stop offset="0.286464" stop-color="#8594E4"/>
<stop offset="0.83273" stop-color="#8594E4"/>
<stop offset="1" stop-color="#9F66FF" stop-opacity="0"/>
</linearGradient>
<linearGradient id="paint1_linear_7_370" x1="-42.8329" y1="6.62598" x2="177.167" y2="116.626" gradientUnits="userSpaceOnUse">
<stop stop-color="#9F66FF"/>
<stop offset="0.338542" stop-color="#8594E4"/>
<stop offset="0.578125" stop-color="#8594E4" stop-opacity="0.71"/>
<stop offset="1" stop-color="#9F66FF" stop-opacity="0"/>
</linearGradient>
</defs>
</svg>
