<svg width="120" height="120" viewBox="0 0 120 120" fill="none" xmlns="http://www.w3.org/2000/svg">
<path d="M80 15H5V80H80V15Z" stroke="url(#paint0_linear_7_380)" stroke-width="5" stroke-linecap="round" stroke-linejoin="round"/>
<path d="M80 40H100L115 55V80H80V40Z" stroke="url(#paint1_linear_7_380)" stroke-width="5" stroke-linecap="round" stroke-linejoin="round"/>
<path d="M27.5 105C34.4036 105 40 99.4036 40 92.5C40 85.5964 34.4036 80 27.5 80C20.5964 80 15 85.5964 15 92.5C15 99.4036 20.5964 105 27.5 105Z" stroke="url(#paint2_linear_7_380)" stroke-width="5" stroke-linecap="round" stroke-linejoin="round"/>
<path d="M92.5 105C99.4036 105 105 99.4036 105 92.5C105 85.5964 99.4036 80 92.5 80C85.5964 80 80 85.5964 80 92.5C80 99.4036 85.5964 105 92.5 105Z" stroke="url(#paint3_linear_7_380)" stroke-width="5" stroke-linecap="round" stroke-linejoin="round"/>
<defs>
<linearGradient id="paint0_linear_7_380" x1="22.75" y1="21.0667" x2="70.9053" y2="86.6753" gradientUnits="userSpaceOnUse">
<stop offset="0.14125" stop-color="#9F66FF"/>
<stop offset="0.286464" stop-color="#8594E4"/>
<stop offset="0.83273" stop-color="#8594E4"/>
<stop offset="1" stop-color="#9F66FF" stop-opacity="0"/>
</linearGradient>
<linearGradient id="paint1_linear_7_380" x1="77" y1="42" x2="130.993" y2="69.019" gradientUnits="userSpaceOnUse">
<stop offset="0.14125" stop-color="#9F66FF"/>
<stop offset="0.286464" stop-color="#8594E4"/>
<stop offset="0.83273" stop-color="#8594E4"/>
<stop offset="1" stop-color="#9F66FF" stop-opacity="0"/>
</linearGradient>
<linearGradient id="paint2_linear_7_380" x1="20.9167" y1="82.3333" x2="47" y2="105" gradientUnits="userSpaceOnUse">
<stop offset="0.14125" stop-color="#9F66FF"/>
<stop offset="0.286464" stop-color="#8594E4"/>
<stop offset="0.83273" stop-color="#8594E4"/>
<stop offset="1" stop-color="#9F66FF" stop-opacity="0"/>
</linearGradient>
<linearGradient id="paint3_linear_7_380" x1="7.24465e-06" y1="11.5" x2="141.5" y2="83" gradientUnits="userSpaceOnUse">
<stop stop-color="#9F66FF"/>
<stop offset="0.508548" stop-color="#8B8AEA"/>
<stop offset="0.571432" stop-color="#8594E4"/>
<stop offset="0.691676" stop-color="#8594E4"/>
<stop offset="0.747806" stop-color="#8594E4"/>
<stop offset="0.876235" stop-color="#8594E4"/>
<stop offset="1" stop-color="#9F66FF" stop-opacity="0"/>
</linearGradient>
</defs>
</svg>
