<svg width="100" height="100" viewBox="0 0 100 100" fill="none" xmlns="http://www.w3.org/2000/svg">
<mask id="path-1-inside-1_15_178" fill="white">
<path fill-rule="evenodd" clip-rule="evenodd" d="M50 95.8428C77.6142 95.8428 100 74.3876 100 47.9214C100 21.4551 77.6142 0 50 0C22.3858 0 0 21.4551 0 47.9214C0 57.3789 2.85855 66.1966 7.79274 73.624L0.709589 99.9999L30.4771 92.0522C36.4752 94.4927 43.0731 95.8428 50 95.8428Z"/>
</mask>
<path d="M7.79274 73.624L12.6216 74.9208L13.2076 72.739L11.9575 70.8573L7.79274 73.624ZM0.709589 99.9999L-4.11932 98.7031L-6.36454 107.064L1.99937 104.831L0.709589 99.9999ZM30.4771 92.0522L32.3615 87.4209L30.8079 86.7888L29.1873 87.2215L30.4771 92.0522ZM95 47.9214C95 71.4282 75.055 90.8428 50 90.8428V100.843C80.1734 100.843 105 77.347 105 47.9214H95ZM50 5C75.055 5 95 24.4145 95 47.9214H105C105 18.4957 80.1734 -5 50 -5V5ZM5 47.9214C5 24.4145 24.945 5 50 5V-5C19.8266 -5 -5 18.4957 -5 47.9214H5ZM11.9575 70.8573C7.54427 64.2141 5 56.3526 5 47.9214H-5C-5 58.4053 -1.82717 68.1791 3.62798 76.3908L11.9575 70.8573ZM5.5385 101.297L12.6216 74.9208L2.96383 72.3272L-4.11932 98.7031L5.5385 101.297ZM29.1873 87.2215L-0.580188 95.1691L1.99937 104.831L31.7669 96.883L29.1873 87.2215ZM50 90.8428C43.7266 90.8428 37.7682 89.6208 32.3615 87.4209L28.5927 96.6836C35.1823 99.3647 42.4196 100.843 50 100.843V90.8428Z" fill="url(#paint0_linear_15_178)" mask="url(#path-1-inside-1_15_178)"/>
<path d="M74.9985 62.4346V69.9616C75.0013 70.6604 74.8579 71.352 74.5774 71.9923C74.2969 72.6325 73.8855 73.2072 73.3696 73.6796C72.8537 74.152 72.2446 74.5117 71.5813 74.7355C70.9181 74.9594 70.2153 75.0425 69.518 74.9796C61.782 74.1407 54.3511 71.5025 47.8223 67.277C41.748 63.4248 36.5982 58.2851 32.7383 52.223C28.4897 45.6775 25.8456 38.2252 25.0204 30.4699C24.9576 29.7761 25.0402 29.0768 25.263 28.4166C25.4858 27.7564 25.8439 27.1497 26.3145 26.6352C26.7851 26.1206 27.3579 25.7096 27.9964 25.4281C28.635 25.1466 29.3252 25.0009 30.0232 25.0002H37.5652C38.7853 24.9883 39.968 25.4194 40.8931 26.2134C41.8182 27.0074 42.4224 28.11 42.5932 29.3157C42.9115 31.7245 43.5018 34.0897 44.353 36.366C44.6912 37.2641 44.7644 38.2401 44.5639 39.1783C44.3634 40.1166 43.8976 40.9779 43.2217 41.66L40.0289 44.8465C43.6077 51.1279 48.8189 56.3288 55.1128 59.9005L58.3056 56.7141C58.9891 56.0395 59.8521 55.5746 60.7922 55.3745C61.7324 55.1744 62.7103 55.2474 63.6101 55.585C65.891 56.4344 68.2608 57.0236 70.6744 57.3413C71.8956 57.5133 73.0109 58.1272 73.8082 59.0663C74.6054 60.0053 75.029 61.2041 74.9985 62.4346Z" fill="url(#paint1_linear_15_178)"/>
<defs>
<linearGradient id="paint0_linear_15_178" x1="-9.5" y1="-3.64205e-07" x2="122.883" y2="88.3057" gradientUnits="userSpaceOnUse">
<stop offset="0.14125" stop-color="#9F66FF"/>
<stop offset="0.286464" stop-color="#8594E4"/>
<stop offset="0.83273" stop-color="#8594E4"/>
<stop offset="1" stop-color="#9F66FF" stop-opacity="0"/>
</linearGradient>
<linearGradient id="paint1_linear_15_178" x1="29.5" y1="22" x2="84" y2="75" gradientUnits="userSpaceOnUse">
<stop offset="0.14125" stop-color="#9F66FF"/>
<stop offset="0.286464" stop-color="#8594E4"/>
<stop offset="0.83273" stop-color="#8594E4"/>
<stop offset="1" stop-color="#9F66FF" stop-opacity="0"/>
</linearGradient>
</defs>
</svg>
