<svg width="120" height="120" viewBox="0 0 120 120" fill="none" xmlns="http://www.w3.org/2000/svg">
<path d="M112.7 32.1C112.106 29.727 110.896 27.5529 109.193 25.797C107.49 24.0412 105.354 22.7659 103 22.1C94.4001 20 60 20 60 20C60 20 25.6001 20 17.0001 22.3C14.6463 22.9659 12.5099 24.2412 10.8068 25.997C9.10363 27.7529 7.89399 29.927 7.30005 32.3C5.72612 41.0278 4.95623 49.8815 5.00005 58.75C4.94395 67.6852 5.71389 76.6065 7.30005 85.4C7.95485 87.6992 9.19158 89.7907 10.8908 91.4724C12.59 93.1541 14.6942 94.3691 17.0001 95C25.6001 97.3 60 97.3 60 97.3C60 97.3 94.4001 97.3 103 95C105.354 94.3341 107.49 93.0588 109.193 91.303C110.896 89.5471 112.106 87.373 112.7 85C114.262 76.3379 115.032 67.5517 115 58.75C115.056 49.8148 114.286 40.8935 112.7 32.1Z" stroke="url(#paint0_linear_17_58)" stroke-width="5" stroke-linecap="round" stroke-linejoin="round"/>
<path d="M48.75 75.0999L77.5 58.7499L48.75 42.3999V75.0999Z" stroke="url(#paint1_linear_17_58)" stroke-width="5" stroke-linecap="round" stroke-linejoin="round"/>
<defs>
<linearGradient id="paint0_linear_17_58" x1="-55.0001" y1="-7.5" x2="127.022" y2="180.796" gradientUnits="userSpaceOnUse">
<stop stop-color="#9F66FF"/>
<stop offset="0.286464" stop-color="#8594E4"/>
<stop offset="0.83273" stop-color="#8594E4"/>
<stop offset="0.9999" stop-color="#927DF2" stop-opacity="0.498197"/>
<stop offset="1" stop-color="#9F66FF" stop-opacity="0"/>
</linearGradient>
<linearGradient id="paint1_linear_17_58" x1="55.5542" y1="45.4519" x2="76.0204" y2="68.9523" gradientUnits="userSpaceOnUse">
<stop stop-color="#9F66FF"/>
<stop offset="0.286464" stop-color="#8594E4"/>
<stop offset="0.83273" stop-color="#8594E4"/>
<stop offset="0.9999" stop-color="#927DF2" stop-opacity="0.498197"/>
<stop offset="1" stop-color="#9F66FF" stop-opacity="0"/>
</linearGradient>
</defs>
</svg>
